<?xml version="1.0" encoding="UTF-8" standalone="no"?>
<!DOCTYPE svg PUBLIC "-//W3C//DTD SVG 20010904//EN"
              "http://www.w3.org/TR/2001/REC-SVG-20010904/DTD/svg10.dtd">

<svg xmlns="http://www.w3.org/2000/svg"
     width="132.275mm" height="132.275mm"
     viewBox="0 0 500 500">
  <path id="Selection #2"
        fill="none" stroke="black" stroke-width="1"
        d="M 236.00,60.42
           C 212.75,63.73 200.93,64.37 178.00,73.06
             133.37,89.99 94.01,125.57 72.26,168.00
             61.51,188.97 51.28,222.38 51.00,246.00
             50.78,265.22 50.63,279.90 54.45,299.00
             65.12,352.36 97.84,399.67 144.00,428.42
             159.57,438.12 173.30,444.90 191.00,450.00
             206.67,454.52 218.71,456.95 235.00,458.09
             235.00,458.09 245.00,459.00 245.00,459.00
             277.83,459.38 306.01,452.65 336.00,439.58
             357.53,430.19 379.60,413.43 395.16,396.00
             410.30,379.06 423.58,361.02 432.57,340.00
             467.98,257.25 446.09,161.97 376.00,104.61
             355.65,87.96 334.84,77.20 310.00,69.00
             290.18,62.46 256.68,57.91 236.00,60.42 Z
           M 239.00,71.28
           C 259.40,69.39 288.53,73.57 308.00,80.00
             332.06,87.95 353.80,99.59 373.00,116.29
             390.11,131.17 404.87,149.03 415.69,169.00
             455.92,243.21 441.38,334.62 382.00,394.00
             366.49,409.51 346.32,423.53 326.00,431.99
             308.12,439.43 289.34,444.98 270.00,446.96
             270.00,446.96 262.00,446.96 262.00,446.96
             262.00,446.96 248.00,448.00 248.00,448.00
             248.00,448.00 238.00,447.09 238.00,447.09
             216.98,445.64 199.71,442.37 180.00,434.55
             160.95,426.99 141.45,415.16 126.00,401.71
             59.80,344.12 42.61,245.92 84.31,169.00
             108.98,123.48 150.46,91.56 200.00,77.43
             213.03,73.71 225.77,73.19 239.00,71.28 Z
           M 227.00,137.00
           C 223.98,147.64 229.36,169.89 232.13,181.00
             234.29,189.63 236.62,189.12 237.12,192.09
             237.43,193.93 235.58,197.83 235.00,200.00
             235.00,200.00 228.00,200.00 228.00,200.00
             228.00,200.00 233.00,201.00 233.00,201.00
             229.12,204.59 225.11,204.76 220.00,205.00
             220.00,205.00 227.00,202.00 227.00,202.00
             223.29,200.28 221.72,201.81 218.00,202.75
             218.00,202.75 203.00,206.13 203.00,206.13
             203.00,206.13 151.00,217.58 151.00,217.58
             143.38,219.26 132.52,220.18 127.00,226.00
             127.00,226.00 166.00,217.50 166.00,217.50
             166.00,217.50 201.00,210.00 201.00,210.00
             195.34,213.87 187.13,216.64 182.92,222.18
             171.90,236.68 195.40,247.74 207.00,249.11
             207.00,249.11 217.00,250.00 217.00,250.00
             217.00,250.00 215.00,257.00 215.00,257.00
             215.00,257.00 197.00,256.00 197.00,256.00
             202.26,258.68 208.25,258.00 214.00,258.00
             214.00,258.00 214.00,267.00 214.00,267.00
             204.71,266.76 205.11,263.99 197.00,261.00
             203.46,269.57 209.33,268.39 218.99,269.14
             218.99,269.14 234.00,270.17 234.00,270.17
             234.00,270.17 256.00,272.00 256.00,272.00
             250.18,267.76 250.45,266.81 253.00,260.00
             253.00,260.00 252.00,259.00 252.00,259.00
             252.00,259.00 246.00,260.00 246.00,260.00
             250.24,263.87 249.66,264.48 249.00,270.00
             249.00,270.00 234.00,269.00 234.00,269.00
             234.00,269.00 225.00,268.28 225.00,268.28
             222.45,267.97 218.51,268.14 216.60,266.26
             213.52,263.23 215.93,254.35 219.14,252.09
             221.85,250.17 225.00,251.13 228.00,251.57
             231.92,252.15 247.33,253.48 249.71,255.02
             251.21,255.99 251.23,256.63 252.00,258.00
             262.79,252.33 270.20,255.67 282.00,246.47
             285.82,243.49 288.37,240.24 290.68,236.00
             292.10,233.39 293.16,229.78 296.13,228.61
             299.29,227.37 307.48,229.61 311.00,230.17
             311.00,230.17 327.00,231.00 327.00,231.00
             327.00,231.00 329.00,234.00 329.00,234.00
             324.67,239.99 319.83,241.99 321.15,246.01
             321.56,247.26 322.94,248.96 323.77,249.98
             329.09,256.51 330.71,255.20 337.88,257.00
             335.86,247.87 332.99,248.24 337.88,239.00
             338.64,237.29 339.70,235.08 341.39,234.03
             343.84,232.49 346.71,233.65 348.99,233.29
             353.89,232.50 356.20,227.03 358.00,223.00
             358.00,223.00 370.00,226.00 370.00,226.00
             370.00,226.00 366.71,215.00 366.71,215.00
             366.71,215.00 373.00,199.00 373.00,199.00
             360.91,199.15 360.27,205.36 350.79,212.00
             350.97,213.26 351.14,214.31 350.79,215.54
             349.10,218.84 340.63,224.46 337.00,224.82
             334.74,225.04 328.50,223.86 326.00,223.39
             319.81,222.23 298.98,220.18 295.00,218.02
             289.32,214.93 288.12,210.22 284.83,207.35
             279.87,203.04 267.56,200.08 261.00,200.00
             254.27,199.92 251.48,200.70 245.00,198.00
             245.00,198.00 251.00,196.00 251.00,196.00
             251.00,196.00 242.21,193.21 242.21,193.21
             242.21,193.21 238.21,183.00 238.21,183.00
             238.21,183.00 234.16,157.00 234.16,157.00
             234.16,157.00 231.15,139.51 231.15,139.51
             231.15,139.51 227.00,137.00 227.00,137.00 Z
           M 295.00,181.00
           C 299.22,182.14 307.54,178.69 312.00,177.42
             312.00,177.42 351.00,166.00 351.00,166.00
             345.88,164.93 339.04,167.79 334.00,169.12
             334.00,169.12 295.00,181.00 295.00,181.00 Z
           M 289.00,183.00
           C 289.00,183.00 294.00,183.00 294.00,183.00
             294.00,183.00 289.00,183.00 289.00,183.00 Z
           M 273.00,188.00
           C 273.00,188.00 273.00,189.00 273.00,189.00
             273.00,189.00 274.00,188.00 274.00,188.00
             274.00,188.00 273.00,188.00 273.00,188.00 Z
           M 260.00,192.00
           C 260.00,192.00 260.00,193.00 260.00,193.00
             260.00,193.00 261.00,192.00 261.00,192.00
             261.00,192.00 260.00,192.00 260.00,192.00 Z
           M 204.00,208.00
           C 204.00,208.00 204.00,209.00 204.00,209.00
             204.00,209.00 203.00,208.00 203.00,208.00
             203.00,208.00 204.00,208.00 204.00,208.00 Z
           M 363.00,243.00
           C 363.00,243.00 363.00,244.00 363.00,244.00
             363.00,244.00 364.00,243.00 364.00,243.00
             364.00,243.00 363.00,243.00 363.00,243.00 Z
           M 218.00,258.00
           C 218.00,258.00 229.00,259.00 229.00,259.00
             229.00,259.00 218.00,258.00 218.00,258.00 Z
           M 232.00,259.00
           C 232.00,259.00 243.00,260.00 243.00,260.00
             243.00,260.00 232.00,259.00 232.00,259.00 Z
           M 157.00,303.00
           C 157.00,303.00 157.00,312.00 157.00,312.00
             157.00,312.00 178.00,312.00 178.00,312.00
             177.97,315.49 177.99,322.05 173.79,323.36
             170.76,324.30 164.39,319.67 161.02,325.23
             158.65,329.15 161.30,333.85 163.68,337.00
             169.42,344.58 177.28,350.34 184.00,357.00
             184.00,357.00 191.00,349.00 191.00,349.00
             191.00,349.00 175.00,335.00 175.00,335.00
             186.78,329.74 189.62,324.56 188.00,312.00
             188.00,312.00 195.00,312.00 195.00,312.00
             195.00,312.00 195.00,303.00 195.00,303.00
             195.00,303.00 157.00,303.00 157.00,303.00 Z
           M 213.00,326.00
           C 200.72,332.61 201.63,345.06 211.04,350.00
             217.30,353.29 222.06,350.94 225.91,353.02
             228.63,354.49 231.21,358.48 233.00,361.00
             233.00,361.00 240.00,358.00 240.00,358.00
             240.00,358.00 235.00,351.00 235.00,351.00
             236.76,348.90 238.71,346.97 238.71,344.00
             238.71,337.30 225.90,332.43 224.00,344.00
             210.45,343.20 214.70,333.64 221.00,331.50
             223.62,330.61 230.73,332.46 234.00,332.63
             239.02,332.89 245.13,331.10 250.00,330.00
             250.00,330.00 250.00,356.00 250.00,356.00
             250.00,356.00 260.00,356.00 260.00,356.00
             260.00,356.00 260.00,312.00 260.00,312.00
             260.00,312.00 268.00,312.00 268.00,312.00
             268.00,312.00 268.00,303.00 268.00,303.00
             268.00,303.00 243.00,303.00 243.00,303.00
             243.00,303.00 243.00,312.00 243.00,312.00
             243.00,312.00 250.00,312.00 250.00,312.00
             249.85,323.94 241.85,323.99 232.00,324.00
             233.84,321.72 235.46,319.88 236.35,317.00
             242.63,296.62 198.21,298.87 207.57,319.00
             208.85,321.74 210.96,323.83 213.00,326.00 Z
           M 274.00,303.00
           C 274.00,303.00 274.00,312.00 274.00,312.00
             274.00,312.00 306.00,312.00 306.00,312.00
             306.00,312.00 306.00,328.00 306.00,328.00
             305.96,330.01 305.99,332.08 304.98,333.90
             302.38,338.58 294.24,340.53 290.31,337.26
             286.51,334.10 288.95,329.16 293.02,327.60
             294.51,327.02 296.42,327.03 298.00,327.00
             298.00,327.00 301.97,327.00 301.97,327.00
             302.25,325.04 303.13,321.25 301.97,319.60
             300.11,317.06 291.68,318.01 289.00,318.79
             279.23,321.61 273.63,331.89 279.23,340.96
             280.73,343.39 282.46,344.84 285.01,346.08
             287.90,347.48 290.82,347.97 294.00,347.97
             299.05,347.97 301.44,346.81 306.00,345.00
             306.00,345.00 306.00,356.00 306.00,356.00
             306.00,356.00 317.00,356.00 317.00,356.00
             317.00,351.89 316.34,338.08 318.02,335.19
             320.77,330.46 328.08,329.64 329.26,336.02
             329.96,339.80 326.94,345.01 326.00,349.00
             326.00,349.00 335.00,353.00 335.00,353.00
             339.58,343.40 345.31,326.08 330.00,322.50
             327.91,322.05 326.09,322.09 324.00,322.50
             321.29,322.96 319.44,323.82 317.00,325.00
             317.00,325.00 317.00,312.00 317.00,312.00
             317.00,312.00 344.00,312.00 344.00,312.00
             344.00,312.00 344.00,303.00 344.00,303.00
             344.00,303.00 274.00,303.00 274.00,303.00 Z
           M 220.11,310.64
           C 229.21,309.60 227.56,318.69 222.91,320.16
             218.53,321.53 213.20,314.94 220.11,310.64 Z" />
</svg>
